<svg width="20" height="30" viewBox="0 0 20 30" fill="none" xmlns="http://www.w3.org/2000/svg">
<path d="M11.2468 6.24988C12.0598 7.38803 12.4968 8.75176 12.4968 10.1504V11.4999C12.9253 11.4999 13.3414 11.3567 13.6791 11.093C14.0168 10.8293 14.2567 10.4603 14.3606 10.0447L14.4968 9.49988L14.8663 9.94332C15.4621 10.6582 15.7854 11.5609 15.7789 12.4914C15.7725 13.4219 15.4367 14.3201 14.8311 15.0266C14.6041 15.2914 14.4855 15.632 14.4988 15.9805C14.5122 16.3289 14.6565 16.6595 14.9031 16.9061C15.0407 17.0438 15.2059 17.1509 15.3877 17.2204C15.5696 17.2898 15.7641 17.3202 15.9584 17.3094C16.1528 17.2987 16.3427 17.247 16.5158 17.1579C16.6889 17.0687 16.8412 16.944 16.9628 16.792L17.9968 15.4999L18.9968 17.9999C19.4503 19.5114 19.486 21.1175 19.1002 22.6478C18.7144 24.178 17.9215 25.5752 16.8056 26.6911L16.6795 26.8172C14.9619 28.5348 12.6322 29.4998 10.2031 29.4999H9.18277C7.60108 29.4999 6.04636 29.0903 4.66998 28.311C3.29359 27.5317 2.14247 26.4093 1.3287 25.053C0.354279 23.4289 -0.0927362 21.5428 0.0492014 19.6541C0.191139 17.7655 0.91505 15.9673 2.12127 14.5071L6.16902 9.60713C6.5679 9.1243 6.82425 8.53981 6.90926 7.91933C6.99427 7.29885 6.90458 6.66695 6.65027 6.09463C6.32758 5.36865 6.27194 4.55196 6.4932 3.78892C6.71445 3.02588 7.19833 2.36563 7.85933 1.92488L9.99683 0.499878V2.34932C9.99682 3.748 10.4339 5.11173 11.2468 6.24988Z" fill="url(#paint0_linear_5_920)"/>
<path d="M13.6895 26.0881L13.6939 26.0836C14.4716 25.3 15.0265 24.3232 15.3014 23.254C15.5763 22.1847 15.5613 21.0615 15.258 19.9999L13.8034 21.4545C13.6662 21.5918 13.5032 21.7007 13.3238 21.775C13.1445 21.8493 12.9522 21.8875 12.7581 21.8875C12.5639 21.8875 12.3717 21.8493 12.1923 21.775C12.013 21.7007 11.85 21.5918 11.7127 21.4545C11.4519 21.1937 11.2979 20.8447 11.2812 20.4762C11.2644 20.1077 11.386 19.7462 11.6222 19.4628C12.1085 18.8792 12.4141 18.1666 12.5017 17.4121C12.5892 16.6576 12.4549 15.8939 12.1152 15.2146L9.75799 10.4999L9.39549 14.4874C9.35202 14.9656 9.2124 15.4301 8.98501 15.8531C8.75761 16.2761 8.44713 16.6487 8.07218 16.9488L6.01137 18.5974C5.46435 19.0351 5.02276 19.5901 4.71931 20.2215C4.41585 20.8529 4.25829 21.5444 4.2583 22.2449V22.8124C4.25831 23.4971 4.40886 24.1735 4.6993 24.7936C4.98973 25.4138 5.41296 25.9624 5.93899 26.4008C6.79065 27.1105 7.86695 27.4942 8.97549 27.4833L10.4204 27.4689C11.6493 27.4567 12.8239 26.9605 13.6895 26.0881Z" fill="#FDD04A"/>
<path d="M1.5 10.9999C1.36739 10.9999 1.24021 10.9472 1.14645 10.8534C1.05268 10.7597 1 10.6325 1 10.4999V9.49988C1 9.36727 1.05268 9.24009 1.14645 9.14632C1.24021 9.05256 1.36739 8.99988 1.5 8.99988C1.63261 8.99988 1.75979 9.05256 1.85355 9.14632C1.94732 9.24009 2 9.36727 2 9.49988V10.4999C2 10.6325 1.94732 10.7597 1.85355 10.8534C1.75979 10.9472 1.63261 10.9999 1.5 10.9999Z" fill="#FE691E"/>
<path d="M3 8.49988C2.86739 8.49988 2.74021 8.4472 2.64645 8.35343C2.55268 8.25966 2.5 8.13249 2.5 7.99988V6.99988C2.5 6.86727 2.55268 6.74009 2.64645 6.64632C2.74021 6.55256 2.86739 6.49988 3 6.49988C3.13261 6.49988 3.25979 6.55256 3.35355 6.64632C3.44732 6.74009 3.5 6.86727 3.5 6.99988V7.99988C3.5 8.13249 3.44732 8.25966 3.35355 8.35343C3.25979 8.4472 3.13261 8.49988 3 8.49988Z" fill="#FF8D54"/>
<path d="M1 6.49988C0.867392 6.49988 0.740215 6.4472 0.646447 6.35343C0.552679 6.25966 0.5 6.13249 0.5 5.99988V4.99988C0.5 4.86727 0.552679 4.74009 0.646447 4.64632C0.740215 4.55256 0.867392 4.49988 1 4.49988C1.13261 4.49988 1.25979 4.55256 1.35355 4.64632C1.44732 4.74009 1.5 4.86727 1.5 4.99988V5.99988C1.5 6.13249 1.44732 6.25966 1.35355 6.35343C1.25979 6.4472 1.13261 6.49988 1 6.49988Z" fill="#FFB895"/>
<path d="M18.5 12.4999C18.3674 12.4999 18.2402 12.4472 18.1464 12.3534C18.0527 12.2597 18 12.1325 18 11.9999V10.9999C18 10.8673 18.0527 10.7401 18.1464 10.6463C18.2402 10.5526 18.3674 10.4999 18.5 10.4999C18.6326 10.4999 18.7598 10.5526 18.8536 10.6463C18.9473 10.7401 19 10.8673 19 10.9999V11.9999C19 12.1325 18.9473 12.2597 18.8536 12.3534C18.7598 12.4472 18.6326 12.4999 18.5 12.4999Z" fill="#FE691E"/>
<path d="M17 8.99988C16.8674 8.99988 16.7402 8.9472 16.6464 8.85343C16.5527 8.75966 16.5 8.63249 16.5 8.49988V7.49988C16.5 7.36727 16.5527 7.24009 16.6464 7.14632C16.7402 7.05256 16.8674 6.99988 17 6.99988C17.1326 6.99988 17.2598 7.05256 17.3536 7.14632C17.4473 7.24009 17.5 7.36727 17.5 7.49988V8.49988C17.5 8.63249 17.4473 8.75966 17.3536 8.85343C17.2598 8.9472 17.1326 8.99988 17 8.99988Z" fill="#FF8D54"/>
<path d="M19 7.49988C18.8674 7.49988 18.7402 7.4472 18.6464 7.35343C18.5527 7.25966 18.5 7.13249 18.5 6.99988V5.49988C18.5 5.36727 18.5527 5.24009 18.6464 5.14632C18.7402 5.05256 18.8674 4.99988 19 4.99988C19.1326 4.99988 19.2598 5.05256 19.3536 5.14632C19.4473 5.24009 19.5 5.36727 19.5 5.49988V6.99988C19.5 7.13249 19.4473 7.25966 19.3536 7.35343C19.2598 7.4472 19.1326 7.49988 19 7.49988Z" fill="#FFB895"/>
<defs>
<linearGradient id="paint0_linear_5_920" x1="9.69442" y1="0.499878" x2="9.69442" y2="29.4999" gradientUnits="userSpaceOnUse">
<stop stop-color="#FF9159"/>
<stop offset="0.6875" stop-color="#FF7631"/>
<stop offset="1" stop-color="#FF6A1F"/>
</linearGradient>
</defs>
</svg>
